<svg xmlns="http://www.w3.org/2000/svg" width="48" height="96" viewBox="0 0 48 96" fill="none">
  <path d="M48 96C35.2696 96 23.0606 90.9429 14.0589 81.9411C5.05713 72.9394 -3.54136e-07 60.7304 0 48C3.54136e-07 35.2696 5.05713 23.0606 14.0589 14.0589C23.0606 5.05713 35.2696 -1.51808e-07 48 0L48 12.624C38.6177 12.624 29.6197 16.3511 22.9854 22.9854C16.3511 29.6197 12.624 38.6177 12.624 48C12.624 57.3823 16.3511 66.3803 22.9854 73.0146C29.6197 79.6489 38.6177 83.376 48 83.376L48 96Z" fill="#C60000"/>
</svg>
<svg xmlns="http://www.w3.org/2000/svg" width="31" height="30" viewBox="0 0 31 30" fill="none">
  <rect x="31" width="6.52175" height="6.73914" rx="1" transform="rotate(90 31 0)" fill="#C60000"/>
  <rect x="31" y="7.82611" width="6.52175" height="6.73914" rx="1" transform="rotate(90 31 7.82611)" fill="#C60000"/>
  <rect x="31" y="15.6522" width="6.52175" height="6.73914" rx="1" transform="rotate(90 31 15.6522)" fill="#C60000"/>
  <rect x="31" y="23.4783" width="6.52175" height="6.73914" rx="1" transform="rotate(90 31 23.4783)" fill="#C60000"/>
  <rect x="22.9131" y="15.6522" width="6.52175" height="6.73914" rx="1" transform="rotate(90 22.9131 15.6522)" fill="#C60000"/>
  <rect x="14.8261" y="7.82611" width="6.52175" height="6.73914" rx="1" transform="rotate(90 14.8261 7.82611)" fill="#C60000"/>
  <rect x="6.73914" width="6.52175" height="6.73914" rx="1" transform="rotate(90 6.73914 0)" fill="#C60000"/>
  <rect x="6.73914" y="7.82611" width="6.52175" height="6.73914" rx="1" transform="rotate(90 6.73914 7.82611)" fill="#C60000"/>
  <rect x="6.73914" y="15.6522" width="6.52175" height="6.73914" rx="1" transform="rotate(90 6.73914 15.6522)" fill="#C60000"/>
  <rect x="6.73914" y="23.4783" width="6.52175" height="6.73914" rx="1" transform="rotate(90 6.73914 23.4783)" fill="#C60000"/>
</svg>